<svg width="158" height="158" viewBox="0 0 158 158" fill="none" xmlns="http://www.w3.org/2000/svg">
<g id="Frame 1000005571">
<path id="Vector" d="M153.435 78.3938L154.447 78.1876C156.21 77.8314 157.372 76.1068 157.016 74.3446C156.659 72.5637 154.935 71.4202 153.173 71.7764L152.16 71.9826C148.486 53.5174 143.368 38.9889 140.725 39.5138C138.082 40.0387 140.5 55.1108 144.174 73.576L143.218 73.7635C142.6 71.139 141.794 68.7957 140.819 67.4084C138.513 64.1653 135.007 63.8279 132.045 63.8654C129.14 63.9029 121.397 64.2216 109.137 66.1899C108.725 66.2649 108.312 66.3211 107.9 66.3961C106.063 64.5027 103.064 61.9532 99.8391 61.3908C99.8391 61.3908 98.9393 63.0968 99.5767 67.8021C98.2269 68.0458 97.0272 68.252 95.9774 68.4395C95.9774 68.4395 95.9774 68.4207 95.9774 68.402C95.8274 65.89 93.6528 63.9778 91.1408 64.1278C90.6159 64.1653 90.1285 64.2778 89.6598 64.4653C88.5163 62.1594 87.2978 61.2971 86.0793 61.0722C84.5795 61.4096 83.3048 61.7283 82.4425 61.9907C67.7265 66.4524 65.3645 73.501 42.2877 84.8239C36.5888 87.6171 33.4956 86.2486 31.171 82.1431C27.8529 76.3317 24.0099 64.334 22.0415 62.3282C19.6045 59.8349 12.1997 62.9655 10.7 67.071C8.2067 73.8385 8.6941 90.4665 7.21314 96.9903C6.36955 100.702 -1.05403 103.308 0.126993 105.932C0.764371 107.32 4.45741 108.501 10.9062 109.194L12.8933 111.331C13.6806 112.175 14.7867 112.644 15.9302 112.625C20.0544 112.55 27.7404 112.325 32.0334 111.65C33.1957 111.462 34.1892 110.694 34.8078 109.663C39.0633 109.513 69.5637 107.263 74.9064 107.676C80.2304 108.069 84.5421 110.544 87.7477 112.644C90.9533 114.743 95.115 115.587 109.212 113.806C122.654 112.1 122.747 109.625 122.485 107.413C122.129 104.395 119.073 95.2844 117.105 90.9914C116.43 89.5105 114.63 86.7922 109.737 87.0734C96.596 87.8045 78.8994 99.0336 64.071 103.289L63.9398 102.989C77.1747 98.6587 84.842 92.6599 97.5146 87.9358C97.777 87.842 97.6646 87.4483 97.3834 87.4858C76.5186 91.4413 47.1992 99.0149 38.6509 101.996C39.7194 100.308 40.0381 97.9651 34.9203 98.415C71.7945 84.8426 109.025 77.0253 115.661 76.3317C115.867 78.675 116.317 80.2685 116.973 82.9117C117.011 83.0429 117.048 83.1742 117.067 83.2866C116.336 83.3991 113.449 84.0365 111.574 84.4677C111.406 84.5052 111.443 84.7676 111.612 84.7489C113.861 84.6176 117.405 84.6364 118.792 88.7419C119.785 91.6475 121.566 95.6405 123.31 97.2152C128.596 95.6405 143.912 90.729 144.362 85.1613C144.474 83.849 144.418 82.1244 144.249 80.231L145.449 80.006C149.123 98.4712 154.241 113 156.884 112.475C159.528 111.95 157.109 96.8778 153.435 78.4126M117.273 105.595C117.948 105.426 118.417 106.27 117.892 106.738C117.517 107.076 116.805 107.395 115.474 107.676C113.018 108.219 102.876 110.431 97.3459 111.875L97.2709 111.687C103.307 109.532 113.636 106.551 117.273 105.595ZM115.38 100.683C115.98 100.796 116.673 101.902 114.293 102.408C109.456 103.439 96.0149 107.432 90.7471 108.801L90.6721 108.613C98.6394 105.914 112.287 100.158 115.361 100.702M114.086 95.8842C114.405 96.1654 114.536 97.009 113.149 97.2527C105.894 98.5275 89.1724 104.489 84.1484 105.82L84.0921 105.632C93.9902 102.389 111.537 93.9721 114.086 95.8842ZM112.493 91.0664C112.737 91.4788 112.455 92.0037 111.987 92.0787C102.314 93.6159 82.33 101.564 77.5309 102.839L77.4747 102.633C89.3036 98.8274 110.468 87.7108 112.474 91.0664M74.5877 66.6586C76.9123 65.6275 79.9679 64.3715 82.405 63.6592L82.0488 64.9714C79.6493 65.6838 76.6873 66.7711 74.4003 67.7834L74.6065 66.6586H74.5877ZM74.1753 69.4331C76.5561 68.3458 79.0306 67.4084 81.8238 66.5836C81.8238 66.5836 81.5989 69.2268 82.1425 71.9451C79.6117 72.6574 76.856 73.6323 73.9128 74.7945C73.7066 72.4512 73.8941 70.6891 74.1565 69.4331M115.642 69.508C74.3628 77.2878 47.9116 88.142 47.9116 88.142C78.2995 78.5251 101.583 73.501 115.511 71.0078C115.474 71.6639 115.455 72.32 115.455 72.9574C111.556 73.501 86.173 77.2503 23.7662 98.1713C23.3538 98.3025 22.9226 98.4337 22.4915 98.5837C10.625 102.558 6.632 104.433 5.46972 105.389C3.95126 105.464 3.08892 105.351 3.01394 104.995C2.78898 103.833 10.2313 100.327 21.1792 95.9967C24.1786 94.8157 25.8283 91.5913 25.0597 88.4794C23.1663 80.7934 20.4106 69.3956 19.7732 67.1835C19.3046 65.5713 18.1235 65.4776 16.9613 65.7775C16.2114 65.9837 15.8177 65.7213 16.7551 65.2901C18.7609 64.3903 19.9232 64.6527 20.5418 65.2901C22.1353 66.846 26.2032 79.1624 28.9402 84.8988C31.321 89.9041 35.464 91.3101 41.594 88.4794C57.716 81.0558 64.3334 74.2696 72.0382 70.4454C71.8695 71.8139 71.832 73.501 72.0382 75.5444C65.6269 78.1689 58.1284 81.9369 51.2109 85.7612C59.0095 82.6305 67.3891 79.7061 74.7752 77.494C88.4413 73.4073 104.076 69.8642 115.867 68.0271C115.774 68.477 115.699 68.9831 115.642 69.5268M141.231 45.0065C142.243 44.8003 145.243 57.2666 148.336 72.7887L145.224 73.4073C142.131 57.904 140.219 45.2127 141.25 45.0065M118.173 70.5578C121.885 69.9205 124.772 69.4893 126.796 69.2268C127.246 69.1706 127.565 68.7582 127.528 68.327C127.471 67.8771 127.04 67.5397 126.572 67.6147C123.816 68.0646 121.116 68.5332 118.473 69.0206C118.792 68.177 119.392 67.5397 120.291 67.3709C124.941 66.4149 131.502 65.4963 135.963 65.9462C139.713 66.3211 141.194 70.8203 141.362 71.4202C140.388 69.3018 139.225 68.0271 138.251 68.2145C136.62 68.5332 136.113 72.8074 137.107 77.7377C137.182 78.1501 137.276 78.5625 137.369 78.9562C136.057 79.4249 126.609 81.8057 119.654 82.968C118.492 78.6563 117.892 74.1759 118.173 70.5766M140.725 87.6171C138.7 89.5667 131.746 92.3599 124.491 94.497C123.703 93.316 122.953 91.9287 122.26 90.3915C128.109 89.0793 135.532 86.511 139.45 84.3927C140.181 85.4425 141.137 86.2486 141.794 86.1174C141.981 86.0799 142.169 85.9861 142.337 85.8362C141.887 86.811 140.725 87.6358 140.725 87.6358M141.719 77.494C141.512 76.4255 142.187 75.3944 143.256 75.1882L153.904 73.0699C154.429 72.9574 154.954 73.3136 155.066 73.8385C155.179 74.3634 154.822 74.8883 154.297 75.0007L141.719 77.5128V77.494ZM156.322 107.113C155.31 107.32 152.31 94.8532 149.217 79.3499L152.329 78.7125C155.422 94.2158 157.334 106.907 156.303 107.113" fill="#BF3A33"/>
</g>
</svg>
